# xmcd
#
# Track frame offsets: 
#        150
#        34317
#        54610
#        77026
#        104109
#        128545
#        171185
#        200985
#        220278
#
# Disc length: 3322 seconds
#
# Revision: 0
# Processed by: cddbd v1.4PL0 Copyright (c) Steve Scherf et al.
# Submitted via: ExactAudioCopy v0.90b4
#
DISCID=880cf809
DTITLE=Van Morrison - Shake, Rattle and Roll - Dranouter, disc 2
DYEAR=1998
DGENRE=Celtic
TTITLE0=Ain't That Loving You Baby > Times Getting Tougher Than Tough 
TTITLE0=> Kansas City
TTITLE1=How Long Has This Been Going On ?
TTITLE2=Satisfied
TTITLE3=Tupelo Honey > Crazy Love
TTITLE4=Just Like A Woman
TTITLE5=Summertime In England
TTITLE6=Georgia On My Mind
TTITLE7=Bright Side Of The Road
TTITLE8=Scandinavia
EXTD=
EXTT0=
EXTT1=
EXTT2=
EXTT3=
EXTT4=
EXTT5=
EXTT6=
EXTT7=
EXTT8=
PLAYORDER=
